<svg id="lock" data-name="Line color" xmlns="http://www.w3.org/2000/svg" viewBox="0 0 24 24" class="icon line-color" width="48" height="48"><path id="primary" d="M17,10H7V8a5,5,0,0,1,5-5h0a5,5,0,0,1,5,5Zm1,0H6a1,1,0,0,0-1,1v3a7,7,0,0,0,7.21,7A7.19,7.19,0,0,0,19,13.71V11A1,1,0,0,0,18,10Z" style="fill:none;stroke:#652d90;stroke-linecap:round;stroke-linejoin:round;stroke-width:2px"></path><path id="secondary" d="M13,15a1,1,0,1,1-1-1A1,1,0,0,1,13,15Zm-1,2V16" style="fill: none; stroke-linecap: round; stroke-linejoin: round; stroke-width: 2px;"></path></svg>