<svg id="store" data-name="Line Color" xmlns="http://www.w3.org/2000/svg" viewBox="0 0 24 24" class="icon line-color" width="48" height="48"><path id="secondary" d="M19,13v7a1,1,0,0,1-1,1H6a1,1,0,0,1-1-1V13" style="fill: none; stroke: rgb(101, 45, 144); stroke-linecap: round; stroke-linejoin: round; stroke-width: 2px;"></path><path id="primary" d="M16.5,10.75A2.25,2.25,0,0,1,14.25,13h0A2.25,2.25,0,0,1,12,10.75m4.5,0A2.25,2.25,0,0,0,18.75,13h0A2.25,2.25,0,0,0,21,10.75h0a5.22,5.22,0,0,0-.21-1.47L19.21,3.73a1,1,0,0,0-1-.73H12M7.5,10.75A2.25,2.25,0,0,0,9.75,13h0A2.25,2.25,0,0,0,12,10.75M12,3H5.75a1,1,0,0,0-1,.73L3.21,9.28A5.22,5.22,0,0,0,3,10.75H3A2.25,2.25,0,0,0,5.25,13h0A2.25,2.25,0,0,0,7.5,10.75" style="fill:none;stroke:#652d90;stroke-linecap:round;stroke-linejoin:round;stroke-width:2px"></path></svg>